<svg width="40" height="40" viewBox="0 0 40 40" fill="none" xmlns="http://www.w3.org/2000/svg">
<path d="M0 10C0 8.67392 0.526784 7.40215 1.46447 6.46447C2.40215 5.52678 3.67392 5 5 5H35C36.3261 5 37.5979 5.52678 38.5355 6.46447C39.4732 7.40215 40 8.67392 40 10V30C40 31.3261 39.4732 32.5979 38.5355 33.5355C37.5979 34.4732 36.3261 35 35 35H5C3.67392 35 2.40215 34.4732 1.46447 33.5355C0.526784 32.5979 0 31.3261 0 30V10ZM5 7.5C4.33696 7.5 3.70107 7.76339 3.23223 8.23223C2.76339 8.70107 2.5 9.33696 2.5 10V10.5425L20 21.0425L37.5 10.5425V10C37.5 9.33696 37.2366 8.70107 36.7678 8.23223C36.2989 7.76339 35.663 7.5 35 7.5H5ZM37.5 13.4575L25.73 20.52L37.5 27.7625V13.4575ZM37.415 30.6475L23.315 21.97L20 23.9575L16.685 21.97L2.585 30.645C2.72706 31.177 3.04079 31.6472 3.47747 31.9826C3.91416 32.318 4.44936 32.4999 5 32.5H35C35.5503 32.5001 36.0853 32.3186 36.5219 31.9836C36.9585 31.6487 37.2725 31.179 37.415 30.6475ZM2.5 27.7625L14.27 20.52L2.5 13.4575V27.7625Z" fill="#717171"/>
</svg>
